<svg width="603" height="495" viewBox="0 0 603 495" fill="none" xmlns="http://www.w3.org/2000/svg">
<ellipse rx="233.5" ry="219" transform="matrix(-1 0 0 1 286.5 247.999)" fill="#FFE5D2"/>
<path fill-rule="evenodd" clip-rule="evenodd" d="M480.408 343.693C480.508 343.634 481.135 344.464 482.061 346.098C482.991 347.726 484.148 350.2 485.224 353.391C487.428 359.752 488.812 369.142 487.992 379.382C487.178 389.621 484.819 398.609 482.999 405.006C481.137 411.407 479.767 415.292 479.531 415.226C479.27 415.154 480.195 411.134 481.723 404.671C483.211 398.209 485.335 389.269 486.131 379.24C486.931 369.214 485.793 360.088 483.964 353.779C482.187 347.439 480.115 343.846 480.408 343.693Z" fill="white"/>
<path fill-rule="evenodd" clip-rule="evenodd" d="M486.696 292.449C486.813 292.397 487.57 293.789 488.835 296.354C490.098 298.92 491.873 302.659 493.973 307.325C498.138 316.656 503.744 329.719 507.81 344.883C509.809 352.469 511.172 359.844 511.862 366.616C512.557 373.387 512.628 379.539 512.28 384.674C511.943 389.811 511.297 393.933 510.675 396.736C510.059 399.544 509.572 401.057 509.462 401.032C509.117 400.965 510.639 394.783 510.963 384.612C511.365 374.462 510.036 360.36 506.007 345.366C501.987 330.366 496.61 317.297 492.761 307.85C490.823 303.123 489.256 299.296 488.171 296.652C487.111 293.996 486.578 292.502 486.696 292.449Z" fill="white"/>
<path fill-rule="evenodd" clip-rule="evenodd" d="M253.991 352.594C254.207 352.827 252.091 354.852 249.345 358.612C248.663 359.556 247.923 360.589 247.23 361.769C246.473 362.905 245.814 364.209 245.08 365.556C243.717 368.3 242.423 371.419 241.424 374.815C240.47 378.223 239.913 381.554 239.613 384.607C239.522 386.137 239.389 387.594 239.427 388.959C239.389 390.328 239.467 391.6 239.543 392.763C239.876 397.411 240.596 400.255 240.289 400.338C240.103 400.402 238.919 397.655 238.232 392.898C238.067 391.71 237.91 390.405 237.88 388.992C237.774 387.58 237.85 386.07 237.897 384.48C238.112 381.31 238.639 377.834 239.632 374.297C240.667 370.77 242.061 367.546 243.562 364.748C244.363 363.374 245.098 362.055 245.937 360.917C246.71 359.736 247.537 358.714 248.306 357.795C251.409 354.134 253.869 352.442 253.991 352.594Z" fill="white"/>
<path fill-rule="evenodd" clip-rule="evenodd" d="M258.957 369C259.114 369.251 257.935 370.156 256.395 371.886C255.615 372.741 254.793 373.849 253.985 375.132C253.211 376.438 252.47 377.935 251.887 379.587C251.33 381.246 250.995 382.884 250.803 384.393C250.65 385.903 250.616 387.282 250.705 388.438C250.855 390.752 251.228 392.195 250.95 392.296C250.75 392.381 249.911 391.06 249.398 388.614C249.13 387.395 249.02 385.901 249.089 384.247C249.198 382.598 249.513 380.79 250.123 378.976C250.757 377.171 251.621 375.553 252.548 374.187C253.509 372.84 254.514 371.734 255.472 370.939C257.379 369.329 258.851 368.808 258.957 369Z" fill="white"/>
<path fill-rule="evenodd" clip-rule="evenodd" d="M190.015 216.107C190.111 216.022 190.946 216.847 192.379 218.419C193.107 219.197 193.967 220.177 194.877 221.386C195.796 222.583 196.902 223.913 197.939 225.512C198.474 226.301 199.037 227.127 199.621 227.988C200.199 228.854 200.723 229.803 201.307 230.761C202.502 232.663 203.574 234.81 204.739 237.051C206.939 241.595 209.043 246.753 210.719 252.343C212.341 257.951 213.37 263.429 213.985 268.442C214.22 270.958 214.484 273.346 214.511 275.593C214.539 276.716 214.613 277.798 214.596 278.841C214.573 279.882 214.549 280.881 214.527 281.835C214.522 283.745 214.314 285.462 214.192 286.971C214.082 288.481 213.892 289.771 213.701 290.82C213.351 292.923 213.097 294.07 212.969 294.052C212.641 294.009 213.26 289.35 213.208 281.821C213.191 280.88 213.174 279.896 213.157 278.869C213.135 277.843 213.026 276.777 212.965 275.675C212.873 273.466 212.555 271.123 212.28 268.656C211.58 263.741 210.521 258.379 208.929 252.875C207.283 247.388 205.269 242.308 203.192 237.8C202.088 235.579 201.085 233.44 199.967 231.535C199.42 230.575 198.933 229.623 198.397 228.749C197.855 227.879 197.336 227.042 196.841 226.244C192.806 219.895 189.761 216.324 190.015 216.107Z" fill="white"/>
<path fill-rule="evenodd" clip-rule="evenodd" d="M211.144 224.878C211.303 224.737 213.446 226.748 216.172 230.624C217.544 232.554 218.989 234.986 220.396 237.791C221.762 240.614 223.066 243.82 224.106 247.295C225.115 250.779 225.756 254.183 226.139 257.298C226.476 260.42 226.581 263.249 226.473 265.617C226.284 270.356 225.574 273.214 225.365 273.181C225.065 273.144 225.305 270.251 225.153 265.616C225.092 263.299 224.854 260.548 224.435 257.523C223.969 254.503 223.295 251.211 222.317 247.826C221.306 244.451 220.087 241.32 218.843 238.532C217.557 235.762 216.267 233.324 215.064 231.344C212.68 227.37 210.913 225.073 211.144 224.878Z" fill="white"/>
<path fill-rule="evenodd" clip-rule="evenodd" d="M137.156 378.076L135.532 374.748L90.3121 409.414L110.04 441.479L155.053 403.4L137.156 378.076Z" fill="#FF7B5B"/>
<path fill-rule="evenodd" clip-rule="evenodd" d="M92.207 410.155L109.538 440.226L110.646 439.73L95.2125 411.613L92.207 410.155Z" fill="#D7D4D4"/>
<path fill-rule="evenodd" clip-rule="evenodd" d="M136.263 377.417L92.207 410.154C92.207 410.154 92.3917 410.857 93.485 411.291C94.5796 411.724 95.2125 411.614 95.2125 411.614L141.529 379.808C141.529 379.808 138.859 379.186 137.891 378.461C136.921 377.733 136.263 377.417 136.263 377.417Z" fill="#F5F3F3"/>
<path fill-rule="evenodd" clip-rule="evenodd" d="M142.662 378.526L94.3854 410.879L110.065 440.693L112.591 444.822L160.869 408.972C160.869 408.972 155.784 401.358 152.731 396.76C149.678 392.163 143.685 381.32 143.359 380.625C143.031 379.93 142.662 378.526 142.662 378.526Z" fill="#FF7B5B"/>
<path fill-rule="evenodd" clip-rule="evenodd" d="M540.786 155.165L542.15 152.371L580.122 181.481L563.556 208.408L525.757 176.431L540.786 155.165Z" fill="#775298"/>
<path fill-rule="evenodd" clip-rule="evenodd" d="M578.531 182.103L563.979 207.354L563.047 206.938L576.008 183.328L578.531 182.103Z" fill="#D7D4D4"/>
<path fill-rule="evenodd" clip-rule="evenodd" d="M541.537 154.611L578.532 182.102C578.532 182.102 578.375 182.692 577.459 183.056C576.539 183.42 576.007 183.327 576.007 183.327L537.113 156.62C537.113 156.62 539.356 156.098 540.169 155.487C540.983 154.877 541.537 154.611 541.537 154.611Z" fill="#F5F3F3"/>
<path fill-rule="evenodd" clip-rule="evenodd" d="M536.163 155.543L576.702 182.71L563.537 207.747L561.415 211.214L520.873 181.109C520.873 181.109 525.144 174.714 527.707 170.854C530.273 166.994 535.304 157.888 535.577 157.305C535.852 156.723 536.163 155.543 536.163 155.543Z" fill="#775298"/>
<path fill-rule="evenodd" clip-rule="evenodd" d="M83.1693 102.772C83.1693 102.772 80.3023 104.763 81.7352 108.082C83.1693 111.401 89.4546 121.248 97.9455 120.915C98.2932 120.903 87.2491 102.772 87.2491 102.772H83.1693Z" fill="#FF7B5B"/>
<path fill-rule="evenodd" clip-rule="evenodd" d="M70.1804 284.293C70.1804 284.293 59.5627 274.777 56.1633 276.481C52.0103 278.565 28.2393 301.933 29.1682 312.941C29.5499 317.45 34.7813 313.587 44.1033 303.885C53.4281 294.185 65.169 298.342 65.169 298.342L70.1804 284.293Z" fill="#775298"/>
<path fill-rule="evenodd" clip-rule="evenodd" d="M95.9771 300.343L83.1592 292.628C83.1592 292.628 49.9345 323.88 55.1252 328.047C59.0623 331.207 61.3765 328.372 70.6999 318.67C80.022 308.971 91.8335 314.548 91.8335 314.548L95.9771 300.343Z" fill="#775298"/>
<path fill-rule="evenodd" clip-rule="evenodd" d="M174.276 197.525L176.68 231.771L123.322 217.824L174.276 197.525Z" fill="#F3A683"/>
<path fill-rule="evenodd" clip-rule="evenodd" d="M123.322 219.002C123.322 219.002 169.995 221.954 176.21 219.873C176.21 219.873 185.331 309.776 169.101 319.475C152.871 329.177 116.449 314.972 116.449 314.972L126.283 295.57L147.486 294.185V259.54L145.965 259.886L123.322 219.002Z" fill="#112129"/>
<path fill-rule="evenodd" clip-rule="evenodd" d="M64.8169 280.326C64.8169 280.326 53.0774 285.177 56.876 296.957C56.876 296.957 96.9497 328.485 116.449 321.208C127.374 317.133 139.109 286.035 147.319 259.466L176.21 219.873C176.21 219.873 162.584 220.557 158.039 220.539C149.351 220.507 123.323 219.002 123.323 219.002C123.323 219.002 109.727 290.375 104.882 292.106C100.038 293.837 64.8169 280.326 64.8169 280.326Z" fill="#22343D"/>
<path fill-rule="evenodd" clip-rule="evenodd" d="M134.198 129.486C134.198 129.486 162.17 103.155 167.004 96.2242C171.837 89.2952 182.199 66.0827 194.972 56.382L188.758 43.2162C188.758 43.2162 192.558 41.1382 194.972 46.6801C194.972 46.6801 203.95 28.666 206.022 29.0107C208.096 29.3569 201.88 42.8701 201.88 42.8701C201.88 42.8701 210.515 30.3965 212.931 30.744C215.345 31.0901 206.715 44.7656 206.715 44.7656C206.715 44.7656 216.382 33.5156 217.764 34.9014C219.145 36.2872 210.167 44.7656 210.167 44.7656C210.167 44.7656 219.835 39.1965 220.872 41.0319C221.908 42.8701 211.203 47.7198 211.203 47.7198C211.203 47.7198 210.167 55.6885 203.607 59.1523C203.607 59.1523 190.617 94.3656 178.876 105.798L141.16 145.127L134.198 129.486Z" fill="#FFC6B2"/>
<path fill-rule="evenodd" clip-rule="evenodd" d="M100.809 143.133C100.809 143.133 74.3052 170.95 67.3544 175.734C60.4022 180.517 37.1718 190.697 27.3853 203.424L14.3216 197.065C14.3216 197.065 12.2152 200.856 17.7169 203.332C17.7169 203.332 -0.322842 212.171 0.0044616 214.255C0.329049 216.337 13.8544 210.227 13.8544 210.227C13.8544 210.227 1.3422 218.773 1.66543 221.2C1.98866 223.627 15.6974 215.094 15.6974 215.094C15.6974 215.094 4.39523 224.688 5.7642 226.086C7.13045 227.486 15.6662 218.559 15.6662 218.559C15.6662 218.559 10.0246 228.207 11.8472 229.263C13.667 230.319 18.601 219.625 18.601 219.625C18.601 219.625 26.5514 218.663 30.0675 212.111C30.0675 212.111 63.31 198.841 74.8158 187.168L116.184 157.758L100.809 143.133Z" fill="#FFC6B2"/>
<path fill-rule="evenodd" clip-rule="evenodd" d="M110.745 132.046L97.3401 145.212L100.739 160.054C100.739 160.054 113.946 191.865 115.942 199.625C119.045 211.693 114.026 230.092 114.026 230.092C114.026 230.092 136.414 228.227 156.786 227.535C177.156 226.841 183.82 220.257 183.82 220.257C183.82 220.257 166.158 161.235 153.964 144.737C141.768 128.241 137.332 123.076 137.332 123.076L119.377 127.014L110.745 132.046Z" fill="white"/>
<path fill-rule="evenodd" clip-rule="evenodd" d="M150.085 142.791L164.051 133.837C164.051 133.837 166.185 124.244 149.342 112.929L129.591 125.347L150.085 142.791Z" fill="white"/>
<path fill-rule="evenodd" clip-rule="evenodd" d="M100.165 144.171C92.5078 145.249 78.5152 164.72 76.9547 164.683C76.9547 164.683 86.8024 180.807 94.6033 181.33C94.6033 181.33 128.932 140.123 100.165 144.171Z" fill="white"/>
<path fill-rule="evenodd" clip-rule="evenodd" d="M127.194 131.502C127.194 131.502 116.064 123.159 116.45 119.833C116.548 118.995 118.09 117.635 118.491 116.427C120.649 109.932 110.245 93.1944 103.852 89.6665C98.8229 86.8922 101.027 86.6469 90.4434 92.9573C79.8596 99.2676 85.8896 110.18 90.6158 115.824C95.084 121.158 100.201 123.444 104.805 123.829L111.351 138.418L127.194 131.502Z" fill="#FFC6B2"/>
<path fill-rule="evenodd" clip-rule="evenodd" d="M107.111 143.084C105.006 137.903 108.992 131.378 116.015 128.504C123.04 125.629 130.438 127.498 132.547 132.676C134.651 137.856 127.583 145.642 123.638 147.256C119.693 148.871 109.215 148.262 107.111 143.084Z" fill="#FFC6B2"/>
<path fill-rule="evenodd" clip-rule="evenodd" d="M90.6163 115.824C90.6163 115.824 87.0065 115.624 86.6058 118.037C86.2038 120.451 93.2225 120.451 95.8301 118.64L90.6163 115.824Z" fill="#FFC6B2"/>
<path fill-rule="evenodd" clip-rule="evenodd" d="M92.4214 118.037C91.7356 113.675 87.103 110.432 87.3339 106.182C89.5544 106.2 90.9804 103.44 89.97 101.082C89.5721 100.155 88.8985 99.3619 88.4679 98.4476C88.0388 97.5346 87.9247 96.3382 88.5834 95.8218C88.8957 95.5779 89.3181 95.5356 89.7228 95.4948C93.0149 95.1555 98.6551 96.1461 101.685 95.0192C104.57 93.9468 107.661 91.8606 107.361 88.315C107.098 85.2273 104.381 82.7241 101.885 80.8328C100.455 79.7481 96.3681 76.9125 94.8266 77.17C92.473 77.5625 91.9026 80.7129 91.7328 83.3496C90.0868 81.7771 87.6585 82.0292 86.2271 83.3087C84.7956 84.5882 84.1179 86.6213 83.4946 88.5835C82.8698 90.547 82.2084 92.5855 80.796 93.8896C79.48 95.105 77.398 96.0248 77.671 98.0919C77.9956 100.556 81.2034 101.432 82.6865 103.533C82.3211 103.018 82.0115 106.307 82.222 106.865C82.8549 108.545 84.4344 109.657 85.5765 110.942C88.0089 113.681 89.1986 116.438 92.4214 118.037Z" fill="#FF7B5B"/>
<path fill-rule="evenodd" clip-rule="evenodd" d="M112.587 108.063L104.363 112.331C104.363 112.331 114.242 119.526 112.587 108.063Z" fill="white"/>
<path fill-rule="evenodd" clip-rule="evenodd" d="M101.272 109.755C101.722 110.611 101.056 111.848 99.7865 112.519C98.5167 113.189 97.1232 113.039 96.6737 112.183C96.2255 111.328 96.8896 110.092 98.1595 109.42C99.4307 108.75 100.823 108.899 101.272 109.755Z" fill="#FFB2A0"/>
<path fill-rule="evenodd" clip-rule="evenodd" d="M113.282 101.524C113.731 102.38 113.066 103.617 111.796 104.288C110.526 104.958 109.133 104.808 108.683 103.952C108.235 103.097 108.899 101.859 110.169 101.189C111.44 100.519 112.832 100.668 113.282 101.524Z" fill="#FFB2A0"/>
<path fill-rule="evenodd" clip-rule="evenodd" d="M106.846 107.761C106.808 107.713 106.961 107.51 107.317 107.252C107.657 106.989 108.248 106.706 108.686 106.232C109.121 105.772 109.277 104.815 108.611 104.68C107.92 104.444 107.135 105.24 106.235 105.996C106.012 106.181 105.792 106.365 105.573 106.546C105.37 106.734 104.941 107.01 104.495 106.954C103.646 106.816 103.285 106.248 102.959 105.868C102.307 105.028 101.905 104.15 101.682 103.389C101.241 101.852 101.439 100.86 101.545 100.868C101.693 100.862 101.742 101.815 102.303 103.167C102.586 103.839 103.008 104.602 103.623 105.323C103.923 105.688 104.301 106.029 104.57 106.04C104.682 106.045 104.771 106.007 104.983 105.828C105.199 105.647 105.416 105.463 105.636 105.278C106.089 104.91 106.482 104.538 107.001 104.192C107.505 103.851 108.223 103.636 108.867 103.855C109.554 104.036 109.957 104.84 109.838 105.399C109.76 105.969 109.478 106.388 109.157 106.695C108.48 107.263 107.874 107.401 107.492 107.573C107.101 107.721 106.887 107.814 106.846 107.761Z" fill="#FF7B5B"/>
<path fill-rule="evenodd" clip-rule="evenodd" d="M104.805 123.829C104.805 123.829 110.052 123.859 112.898 122.1C112.898 122.1 110.49 125.068 105.672 125.836L104.805 123.829Z" fill="#FFA192"/>
<path fill-rule="evenodd" clip-rule="evenodd" d="M107.081 100.223C107.033 100.484 106.3 100.564 105.524 100.907C104.738 101.226 104.17 101.699 103.952 101.552C103.728 101.433 104.098 100.493 105.16 100.045C106.221 99.5938 107.15 99.9781 107.081 100.223Z" fill="#22343D"/>
<path fill-rule="evenodd" clip-rule="evenodd" d="M96.7994 106.99C96.6011 106.843 96.9121 105.995 97.6672 105.146C98.4318 104.28 99.4083 103.991 99.5115 104.233C99.6201 104.469 99.0253 105.018 98.3557 105.78C97.6753 106.539 97.0139 107.151 96.7994 106.99Z" fill="#22343D"/>
<path fill-rule="evenodd" clip-rule="evenodd" d="M92.8138 105.682C92.3887 105.366 92.0574 104.013 93.6844 102.19C95.3263 100.325 97.1611 100.654 97.3811 101.172C97.6175 101.68 97.0063 102.403 95.5654 104.043C94.1027 105.677 93.2742 106.028 92.8138 105.682Z" fill="#FF7B5B"/>
<path fill-rule="evenodd" clip-rule="evenodd" d="M101.451 98.5002C101.216 98.0587 101.475 96.7737 103.591 95.8784C105.737 94.9532 107.167 95.9738 107.146 96.5039C107.142 97.0312 106.334 97.4005 104.449 98.2154C102.551 99.0152 101.705 98.9812 101.451 98.5002Z" fill="#FF7B5B"/>
<path fill-rule="evenodd" clip-rule="evenodd" d="M552.766 111.282C552.905 111.42 550.626 113.992 545.897 116.794C541.226 119.593 533.878 122.367 525.425 122.43C516.972 122.493 509.582 119.827 504.871 117.098C500.103 114.367 497.786 111.827 497.922 111.687C498.119 111.437 500.71 113.58 505.485 115.925C510.214 118.279 517.341 120.616 525.41 120.558C533.481 120.496 540.572 118.054 545.267 115.63C550.005 113.214 552.567 111.034 552.766 111.282Z" fill="#775298"/>
<path fill-rule="evenodd" clip-rule="evenodd" d="M501.198 107.396C501.069 107.681 498.546 106.63 494.295 105.679C492.176 105.178 489.605 104.791 486.742 104.434C483.868 104.115 480.692 103.861 477.337 103.621C473.981 103.386 470.77 103.115 467.852 102.752C464.935 102.364 462.314 101.902 460.155 101.316C455.819 100.181 453.364 98.8373 453.45 98.6478C453.562 98.3617 456.144 99.246 460.437 100.021C462.579 100.432 465.163 100.749 468.041 101.037C470.926 101.301 474.112 101.518 477.472 101.755C480.834 101.994 484.052 102.304 486.966 102.723C489.879 103.183 492.492 103.717 494.63 104.398C498.923 105.713 501.294 107.217 501.198 107.396Z" fill="#775298"/>
<mask id="mask0" mask-type="alpha" maskUnits="userSpaceOnUse" x="433" y="35" width="170" height="84">
<path fill-rule="evenodd" clip-rule="evenodd" d="M433.032 35.2054H602.356V118.441H433.032V35.2054Z" fill="white"/>
</mask>
<g mask="url(#mask0)">
<path fill-rule="evenodd" clip-rule="evenodd" d="M450.063 52.0647C458.122 50.3491 466.472 51.8262 474.598 53.1848C482.724 54.5433 491.161 55.7683 499.106 53.58C513.45 49.6297 524.34 35.089 539.215 35.2061C545.34 35.2538 551.113 37.8783 557.081 39.2668C564.491 40.9919 572.21 40.8066 579.716 42.037C587.224 43.2675 594.979 46.2967 599.222 52.6316C604.255 60.1492 602.875 70.7533 597.593 78.0979C592.312 85.4439 583.853 89.916 575.187 92.4505C569.142 94.2179 562.702 95.2399 557.471 98.7568C552.179 102.315 548.724 108.04 543.795 112.086C531.424 122.236 512.171 119.327 499.393 109.699C496.182 107.28 493.206 104.473 489.599 102.703C474.928 95.4974 453.827 105.036 441.191 91.9259C428.359 78.6116 430.187 56.2943 450.063 52.0647Z" fill="#775298"/>
</g>
<path fill-rule="evenodd" clip-rule="evenodd" d="M446.037 309.916C446.037 309.916 459.479 338.824 461.052 333.472C462.62 328.117 462.102 315.26 461.26 313.425C460.414 311.589 454.919 303.48 454.919 303.48L446.037 309.916Z" fill="#FFB2A0"/>
<path fill-rule="evenodd" clip-rule="evenodd" d="M543.238 76.1511C544.482 77.7495 543.651 76.0325 545.06 78.3381C550.913 78.1337 554.842 73.1642 554.842 73.1642C554.842 73.1642 564.133 73.4108 564.026 71.7457C563.92 70.0778 555.119 70.7005 555.119 70.7005C555.119 70.7005 564.429 67.7668 563.918 66.3019C563.41 64.8385 552.662 69.5069 552.662 69.5069C552.662 69.5069 563.508 62.7523 561.905 61.669C560.304 60.5884 549.869 66.4845 549.869 66.4845C549.869 66.4845 558.938 59.0105 557.579 58.0471C556.222 57.0837 543.642 66.8116 543.642 66.8116C543.825 62.026 540.404 62.1936 540.404 62.1936L540.545 73.8782C540.545 73.8782 542.665 75.4153 543.238 76.1511Z" fill="#FFC6B2"/>
<path fill-rule="evenodd" clip-rule="evenodd" d="M405.522 23.2669C403.533 23.6349 405.075 22.9413 402.494 23.7316C398.256 19.6764 398.818 13.3033 398.818 13.3033C398.818 13.3033 391.71 7.29956 392.888 6.12633C394.074 4.95037 400.241 11.2785 400.241 11.2785C400.241 11.2785 395.223 2.88189 396.573 2.12699C397.922 1.37208 402.872 12.0225 402.872 12.0225C402.872 12.0225 399.229 -0.253542 401.144 0.00399624C403.057 0.261535 406.96 11.6205 406.96 11.6205C406.96 11.6205 405.124 -0.00826749 406.774 0.175689C408.427 0.358282 411.399 16.0136 411.399 16.0136C414.428 12.3127 416.874 14.7178 416.874 14.7178L409.197 23.1893C409.197 23.1893 406.436 23.0993 405.522 23.2669Z" fill="#FFC6B2"/>
<path fill-rule="evenodd" clip-rule="evenodd" d="M453.744 72.0751C451.173 71.6513 444.957 75.7965 441.847 82.5524C440.106 86.3337 438.908 90.175 440.906 96.3246C441.847 99.2175 443.817 99.5799 444.257 100.876C444.812 102.516 442.972 107.688 442.972 107.688L450.31 110.661C450.786 107.108 451.327 103.534 454.935 101.992C456.285 101.414 457.73 101.049 459.004 100.316C462.442 98.3386 464.278 94.0135 465.69 90.4721C466.744 87.8272 460.19 73.1352 453.744 72.0751Z" fill="#FFC6B2"/>
<path fill-rule="evenodd" clip-rule="evenodd" d="M445.009 172.479L432.716 167.529C432.716 167.529 396.232 235.412 396.384 254.246C396.535 273.079 446.493 310.788 446.493 310.788L454.918 303.481C454.918 303.481 439.494 276.497 431.249 266.983C423.003 257.466 445.009 172.479 445.009 172.479Z" fill="#FFB2A0"/>
<path fill-rule="evenodd" clip-rule="evenodd" d="M506.049 249.807C506.049 249.807 533.144 236.908 527.7 235.769C522.255 234.635 509.522 236.198 507.768 237.19C506.012 238.184 498.404 244.336 498.404 244.336L506.049 249.807Z" fill="#FFC6B2"/>
<path fill-rule="evenodd" clip-rule="evenodd" d="M457.085 171.89L438.436 178.697C438.436 178.697 419.781 261.022 426.903 273.947C434.022 286.877 454.023 278.321 482.508 262.723L506.367 249.655L498.403 244.337C498.403 244.337 470.639 249.796 462.842 255.238C462.842 255.238 466.911 243.671 472.337 227.342C477.761 211.012 481.503 194.343 457.085 171.89Z" fill="#FFC6B2"/>
<path fill-rule="evenodd" clip-rule="evenodd" d="M434.13 115.804C434.13 110.334 435.885 106.379 441.336 106.379C446.788 106.379 454.324 108.296 454.324 113.767C454.324 119.239 450.028 128.122 444.574 128.122C439.123 128.122 434.13 121.276 434.13 115.804Z" fill="#FFC6B2"/>
<path fill-rule="evenodd" clip-rule="evenodd" d="M438.435 105.595C438.435 105.595 421.483 87.1883 418.092 69.1565C414.7 51.1274 408.938 21.8702 408.938 21.8702L402.496 23.7316C402.496 23.7316 399.443 63.7155 402.496 69.8378C405.546 75.9615 420.457 116.729 424.997 127.435L438.435 105.595Z" fill="#FFC6B2"/>
<path fill-rule="evenodd" clip-rule="evenodd" d="M456.648 119.94C456.648 119.94 457.951 114.215 479.388 106.432C500.824 98.6518 541.266 73.4308 541.266 73.4308L545.301 78.0624C545.301 78.0624 523.327 103.529 510.543 107.995C497.759 112.464 470.606 130.076 467.813 131.485C463.588 133.617 463.639 136.3 456.648 119.94Z" fill="#FFC6B2"/>
<path fill-rule="evenodd" clip-rule="evenodd" d="M438.435 105.595C438.435 105.595 421.212 111.195 421.212 137.49C421.212 137.49 421.222 173.503 425.282 180.055C425.282 180.055 431.881 181.751 440.108 180.055C448.735 178.275 457.085 171.89 457.085 171.89L470.633 131.08L469.013 111.96L450.592 108.391C450.592 108.391 455.876 133.168 436.756 122.516C433.041 120.446 442.223 106.389 442.223 106.389L438.435 105.595Z" fill="#22343D"/>
<path fill-rule="evenodd" clip-rule="evenodd" d="M423.862 126.98L415.375 109.24C415.375 109.24 416.592 98.4781 432.172 94.6218C432.172 94.6218 433.748 100.046 435.475 102.119C437.201 104.19 442.229 106.395 442.229 106.395L423.862 126.98Z" fill="#22343D"/>
<path fill-rule="evenodd" clip-rule="evenodd" d="M455.947 134.111L482.934 128.561C482.934 128.561 487.626 118.807 476.501 107.204C476.501 107.204 455.45 108.48 452.726 108.707C450.044 108.931 451.885 111.004 451.885 111.004L455.947 134.111Z" fill="#22343D"/>
<path fill-rule="evenodd" clip-rule="evenodd" d="M425.239 171.283C425.239 171.283 399.713 218.633 395.496 227.094C395.496 227.094 470.802 261.801 501.371 220.024C501.371 220.024 483.982 183.097 457.1 169.039L445.503 165.554L425.692 171.055" fill="#22343D"/>
<path fill-rule="evenodd" clip-rule="evenodd" d="M464.702 90.0244C464.702 90.0244 467.61 87.107 469.398 89.1264C471.187 91.1458 462.913 94.0632 462.913 94.0632L464.702 90.0244Z" fill="#FFC6B2"/>
<path fill-rule="evenodd" clip-rule="evenodd" d="M517.888 50.2356C517.916 50.3365 516.793 50.8243 514.649 51.3353C512.51 51.8517 509.336 52.3205 505.393 52.4009C501.453 52.4799 496.768 52.1283 491.64 51.4307C486.507 50.748 480.932 49.7451 475.067 49.1033C469.211 48.4751 463.58 48.3607 458.593 49.1687C453.605 49.9631 449.287 51.6024 445.987 53.5169C442.687 55.4464 440.39 57.5871 438.98 59.2072C437.563 60.8288 436.924 61.8644 436.78 61.7772C436.702 61.7363 437.128 60.5699 438.413 58.7521C439.689 56.9398 441.942 54.5484 445.302 52.3859C448.66 50.237 453.122 48.3906 458.308 47.4668C463.5 46.5293 469.307 46.6015 475.265 47.2419C481.228 47.8946 486.81 48.9548 491.883 49.7233C496.954 50.5068 501.538 50.9865 505.397 51.0764C513.134 51.293 517.817 49.9154 517.888 50.2356Z" fill="#775298"/>
<path fill-rule="evenodd" clip-rule="evenodd" d="M449.895 88.3682C449.887 88.4827 449.058 88.5631 447.794 88.142C447.481 88.0317 447.112 87.8872 446.768 87.5711C446.599 87.413 446.441 87.2032 446.345 86.9511C446.206 86.5982 446.217 86.1976 446.354 85.8923C446.395 85.831 446.392 85.6852 446.472 85.6825L446.718 85.6743C446.876 85.6525 447.062 85.7043 447.244 85.7383C447.578 85.8024 447.685 85.7929 447.923 85.8092C448.34 85.8187 448.772 85.7751 449.204 85.6798C450.969 85.3064 452.151 84.0173 452.68 82.9572C453.236 81.8903 453.285 81.0877 453.433 81.0972C453.537 81.0836 453.744 81.9366 453.285 83.2243C453.051 83.8552 452.645 84.5787 451.989 85.2137C451.337 85.8474 450.434 86.3679 449.409 86.5927C448.897 86.7072 448.382 86.7508 447.886 86.7249C447.67 86.714 447.331 86.6704 447.232 86.6486C447.141 86.6336 447.151 86.6132 447.134 86.6241C447.123 86.635 447.118 86.6527 447.119 86.6786C447.156 86.8012 447.222 86.9184 447.316 87.0233C447.505 87.2373 447.779 87.3967 448.046 87.5302C449.14 88.0685 449.915 88.2279 449.895 88.3682Z" fill="#FF7B5B"/>
<path fill-rule="evenodd" clip-rule="evenodd" d="M443.841 88.6836L453.782 92.6134C453.782 92.6134 445.046 98.6581 443.841 88.6836Z" fill="white"/>
<path fill-rule="evenodd" clip-rule="evenodd" d="M458.028 90.5746C457.675 91.2477 456.58 91.3649 455.582 90.8376C454.583 90.3116 454.061 89.3387 454.412 88.6669C454.765 87.9937 455.861 87.8752 456.86 88.4025C457.858 88.9299 458.381 89.9014 458.028 90.5746Z" fill="#FFB2A0"/>
<path fill-rule="evenodd" clip-rule="evenodd" d="M446.933 84.6721C446.631 85.3698 445.549 85.5715 444.514 85.1218C443.479 84.6721 442.883 83.7428 443.184 83.0452C443.484 82.3475 444.568 82.1458 445.603 82.5955C446.638 83.0452 447.234 83.9745 446.933 84.6721Z" fill="#FFB2A0"/>
<path fill-rule="evenodd" clip-rule="evenodd" d="M443.25 99.6227C443.25 99.6227 446.735 102.551 450.371 101.608C450.371 101.608 449.117 103.494 444.292 102.802C444.292 102.802 444.692 100.724 443.25 99.6227Z" fill="#FFA192"/>
<path fill-rule="evenodd" clip-rule="evenodd" d="M457.074 84.3102C457.074 84.7463 456.721 85.1006 456.286 85.1006C455.852 85.1006 455.499 84.7463 455.499 84.3102C455.499 83.8742 455.852 83.5199 456.286 83.5199C456.721 83.5199 457.074 83.8742 457.074 84.3102Z" fill="#22343D"/>
<path fill-rule="evenodd" clip-rule="evenodd" d="M450.628 81.9809C450.628 82.4169 450.275 82.7712 449.841 82.7712C449.406 82.7712 449.054 82.4169 449.054 81.9809C449.054 81.5448 449.406 81.1906 449.841 81.1906C450.275 81.1906 450.628 81.5448 450.628 81.9809Z" fill="#22343D"/>
<path fill-rule="evenodd" clip-rule="evenodd" d="M459.605 82.2051C459.361 82.3086 458.892 81.7377 458.18 81.2757C457.483 80.7934 456.777 80.5767 456.778 80.3124C456.755 80.0589 457.741 79.8532 458.699 80.4977C459.658 81.1381 459.848 82.1288 459.605 82.2051Z" fill="#775298"/>
<path fill-rule="evenodd" clip-rule="evenodd" d="M448.245 78.3707C448.229 78.124 449.075 77.8134 450.208 77.8433C451.361 77.8679 452.212 78.4293 452.094 78.6636C451.985 78.9007 451.183 78.7986 450.171 78.7795C449.154 78.7495 448.261 78.6391 448.245 78.3707Z" fill="#775298"/>
<path fill-rule="evenodd" clip-rule="evenodd" d="M451.795 321.662C451.795 321.662 455.93 336.389 460.2 335.183C464.47 333.979 461.259 313.425 461.259 313.425L456.999 306.669C456.999 306.669 461.001 341.074 451.795 321.662Z" fill="#22343D"/>
<path fill-rule="evenodd" clip-rule="evenodd" d="M503.941 240.014C503.941 240.014 506.948 236.722 510.593 236.174C514.24 235.625 527.271 234.07 529.184 235.808C531.099 237.545 518.622 243.37 518.622 243.37C518.622 243.37 522.97 240.591 521.165 239.558C517.975 237.728 503.941 240.014 503.941 240.014Z" fill="#22343D"/>
<path fill-rule="evenodd" clip-rule="evenodd" d="M498.771 243.957L502.851 252.268L505.077 251.028L499.636 242.841L498.771 243.957Z" fill="#22343D"/>
<path fill-rule="evenodd" clip-rule="evenodd" d="M453.15 300.149L443.135 309.205L446.103 311.686L454.51 302.506L453.15 300.149Z" fill="#22343D"/>
<path fill-rule="evenodd" clip-rule="evenodd" d="M243.778 209.993C240.93 202.902 239.836 195.007 235.586 188.661C229.47 179.53 217.724 174.999 212.762 165.188C210.654 161.021 209.993 156.255 209.971 151.582C209.93 142.338 212.688 132.511 219.805 126.636C227.982 119.886 240.251 119.98 249.829 124.515C259.403 129.05 266.719 137.281 272.939 145.88C279.161 154.476 284.607 163.703 291.851 171.451C297.222 177.196 303.593 182.15 307.639 188.899C318.731 207.403 307.319 230.814 287.737 237.492C270.532 243.359 249.731 224.819 243.778 209.993Z" fill="#22343D"/>
<path fill-rule="evenodd" clip-rule="evenodd" d="M219.266 340.493C220.969 341.898 219.112 340.925 221.589 342.544C221.036 348.753 215.312 352.665 215.312 352.665C215.312 352.665 215.07 362.551 213.231 362.348C211.388 362.148 212.568 352.829 212.568 352.829C212.568 352.829 208.799 362.566 207.205 361.946C205.612 361.329 211.381 350.155 211.381 350.155C211.381 350.155 203.295 361.322 202.184 359.562C201.075 357.802 208.19 347.027 208.19 347.027C208.19 347.027 199.404 356.268 198.411 354.772C197.42 353.28 208.896 340.427 208.896 340.427C203.584 340.369 203.961 336.741 203.961 336.741L216.898 337.511C216.898 337.511 218.483 339.844 219.266 340.493Z" fill="#FFC6B2"/>
<path fill-rule="evenodd" clip-rule="evenodd" d="M342.86 154.045C345.074 154.435 343.356 153.699 346.229 154.537C350.947 150.236 350.32 143.479 350.32 143.479C350.32 143.479 358.233 137.113 356.921 135.869C355.601 134.622 348.737 141.33 348.737 141.33C348.737 141.33 354.321 132.428 352.819 131.627C351.32 130.827 345.81 142.121 345.81 142.121C345.81 142.121 349.864 129.103 347.732 129.376C345.605 129.65 341.261 141.694 341.261 141.694C341.261 141.694 343.303 129.364 341.466 129.558C339.627 129.752 336.652 145.906 336.652 145.906C332.32 142.369 329.287 144.633 329.287 144.633L338.77 153.962C338.77 153.962 341.843 153.868 342.86 154.045Z" fill="#FFC6B2"/>
<path fill-rule="evenodd" clip-rule="evenodd" d="M288.699 208.035C292.701 207.409 304.907 215.345 301.801 231.461C301.541 232.814 299.78 235.792 299.341 237.024C298.787 238.584 303.105 244.295 303.105 244.295L291.959 247.868C291.483 244.49 292.283 239.553 288.681 238.086C287.334 237.537 285.892 237.189 284.621 236.493C281.189 234.612 279.357 230.498 277.947 227.131C276.894 224.615 276.093 221.908 276.123 219.178C276.196 212.302 282.266 209.044 288.699 208.035Z" fill="#FFC6B2"/>
<path fill-rule="evenodd" clip-rule="evenodd" d="M311.019 252.173C311.019 246.372 309.186 244.158 303.118 244.158C297.05 244.158 289.039 246.372 289.039 252.173C289.039 257.975 293.324 265.235 299.395 265.235C305.462 265.235 311.019 257.975 311.019 252.173Z" fill="#FFC6B2"/>
<path fill-rule="evenodd" clip-rule="evenodd" d="M306.227 241.346C306.227 241.346 325.095 221.828 328.87 202.707C332.645 183.588 339.058 152.564 339.058 152.564L346.229 154.537C346.229 154.537 349.627 196.937 346.229 203.429C342.834 209.924 323.585 255.018 323.963 266.56L306.227 241.346Z" fill="#FFC6B2"/>
<path fill-rule="evenodd" clip-rule="evenodd" d="M272.593 250.797C272.593 250.797 266.178 251.879 256.365 274.247C246.553 296.613 216.362 338.252 216.362 338.252L221.269 342.786C221.269 342.786 250.705 320.782 256.365 307.435C262.025 294.088 269.195 277.494 272.593 278.213C275.989 278.937 290.33 259.093 272.593 250.797Z" fill="#FFC6B2"/>
<path fill-rule="evenodd" clip-rule="evenodd" d="M323.108 269.542L331.894 245.213C331.894 245.213 330.538 233.802 313.198 229.711L303.375 243.911L323.108 269.542Z" fill="#FF7B5B"/>
<path fill-rule="evenodd" clip-rule="evenodd" d="M275.522 248.93C275.522 248.93 265.157 249.806 256.756 268.32C256.756 268.32 265.995 281.118 272.755 281.55C272.755 281.55 297.859 260.02 275.522 248.93Z" fill="#FF7B5B"/>
<path fill-rule="evenodd" clip-rule="evenodd" d="M304.002 468.488C304.002 468.488 289.039 499.143 287.29 493.467C285.544 487.789 286.121 474.155 287.058 472.209C287.999 470.262 294.116 461.663 294.116 461.663L304.002 468.488Z" fill="#FFC6B2"/>
<path fill-rule="evenodd" clip-rule="evenodd" d="M305.145 322.747L318.828 317.498C318.828 317.498 359.435 389.483 359.267 409.455C359.098 429.425 303.495 469.413 303.495 469.413L294.116 461.663C294.116 461.663 320.471 422.785 329.648 412.696C334.237 407.65 301.384 382.923 296.408 359.132C291.432 335.34 305.145 322.747 305.145 322.747Z" fill="#654287"/>
<path fill-rule="evenodd" clip-rule="evenodd" d="M222.876 452.429C222.876 452.429 194.888 473.127 196.052 467.318C197.22 461.504 204.266 449.638 206.033 448.318C207.802 447 217.358 442.034 217.358 442.034L222.876 452.429Z" fill="#FFC6B2"/>
<path fill-rule="evenodd" clip-rule="evenodd" d="M267.918 348.237L308.4 324.698C308.4 324.698 310.007 406.467 300.288 424.147C290.571 441.827 221.982 453.028 221.982 453.028L217.358 442.035C217.358 442.035 259.674 416.739 272.666 411.788C285.659 406.835 267.918 348.237 267.918 348.237Z" fill="#775298"/>
<path fill-rule="evenodd" clip-rule="evenodd" d="M292.027 308.596C292.027 308.596 262.22 319.185 267.918 348.238C273.616 377.289 283.113 382.736 283.113 382.736L300.207 354.593L317.37 317.738L300.207 315.553L292.027 308.596Z" fill="#775298"/>
<path fill-rule="evenodd" clip-rule="evenodd" d="M306.227 241.346C306.227 241.346 328.173 253.686 328.173 281.57C328.173 281.57 325.385 313.359 320.866 320.304C320.866 320.304 313.522 322.104 304.364 320.304C294.762 318.418 285.47 311.647 285.47 311.647L277.97 272.728L272.136 250.003L275.299 248.957L291.804 247.137C291.804 247.137 289.433 271.875 307.862 259.591C311.744 257.003 303.03 244.104 303.03 244.104L306.227 241.346Z" fill="#FF7B5B"/>
<path fill-rule="evenodd" clip-rule="evenodd" d="M319.66 135.978L365.672 162.909L391.555 113.857L348.418 89.8119L319.66 135.978Z" fill="white"/>
<path fill-rule="evenodd" clip-rule="evenodd" d="M383.671 370.786L416.58 350.347L389.392 302.732L359.309 322.303L383.671 370.786Z" fill="white"/>
<path fill-rule="evenodd" clip-rule="evenodd" d="M221.641 167.89C221.727 167.813 222.743 168.738 224.35 170.625C225.95 172.515 228.132 175.389 230.323 179.267C232.522 183.129 234.697 188.029 236.251 193.716C237.859 199.362 238.937 205.708 241.409 211.82C242.693 214.84 244.248 217.651 246.099 220.136C247.966 222.606 250.037 224.772 252.169 226.662C256.526 230.341 261.091 232.872 265.158 234.334C269.222 235.816 272.703 236.481 275.123 236.72C277.54 236.988 278.907 237.028 278.908 237.187C278.915 237.287 277.552 237.495 275.07 237.447C272.589 237.428 268.977 236.953 264.724 235.585C260.467 234.236 255.658 231.739 251.06 227.98C248.804 226.048 246.612 223.81 244.637 221.239C242.679 218.653 241.025 215.696 239.682 212.53C237.107 206.141 236.089 199.739 234.591 194.169C233.161 188.579 231.173 183.769 229.163 179.899C227.165 176.018 225.182 173.076 223.777 171.071C222.363 169.069 221.535 167.984 221.641 167.89Z" fill="#22343D"/>
<path fill-rule="evenodd" clip-rule="evenodd" d="M278.172 136.383C278.51 136.331 278.839 140.875 281.373 147.597C282.638 150.945 284.521 154.797 287.225 158.659C288.576 160.592 290.131 162.497 291.891 164.396C293.639 166.302 295.543 168.238 297.343 170.41C300.951 174.794 303.434 179.532 305.771 183.714C308.092 187.937 309.941 191.954 310.88 195.547C311.861 199.129 311.918 202.213 311.607 204.258C311.282 206.313 310.773 207.354 310.689 207.326C310.527 207.283 310.791 206.184 310.883 204.193C310.963 202.205 310.711 199.308 309.615 195.922C308.555 192.522 306.65 188.69 304.272 184.557C301.857 180.426 299.353 175.783 295.906 171.605C294.176 169.515 292.299 167.586 290.54 165.632C288.772 163.687 287.164 161.662 285.807 159.636C283.085 155.579 281.268 151.536 280.13 148.041C278.966 144.547 278.47 141.599 278.236 139.567C278.003 137.531 278.066 136.392 278.172 136.383Z" fill="#22343D"/>
<path fill-rule="evenodd" clip-rule="evenodd" d="M292.278 225.553C292.26 225.422 293.01 225.302 293.718 224.468C293.881 224.276 294.045 223.995 294.042 223.832C294.038 223.656 293.916 223.351 293.705 223.175C293.487 222.979 293.244 222.883 292.923 222.916C292.592 222.941 292.188 223.105 291.661 223.184C290.507 223.338 289.607 222.684 289.015 222.154C288.406 221.597 287.942 221.032 287.595 220.525C286.905 219.504 286.691 218.767 286.797 218.712C286.919 218.647 287.335 219.257 288.113 220.113C288.501 220.538 288.991 221.026 289.57 221.496C290.14 221.953 290.838 222.368 291.535 222.258C291.905 222.21 292.335 222.037 292.859 222.002C293.393 221.949 293.987 222.195 294.312 222.563C294.659 222.939 294.853 223.382 294.812 223.907C294.709 224.444 294.425 224.694 294.19 224.929C293.176 225.82 292.245 225.674 292.278 225.553Z" fill="#FF7B5B"/>
<path fill-rule="evenodd" clip-rule="evenodd" d="M297.716 226.321L288.879 229.545C288.879 229.545 296.377 236.126 297.716 226.321Z" fill="white"/>
<path fill-rule="evenodd" clip-rule="evenodd" d="M287.997 225.772C288.35 226.445 287.827 227.418 286.829 227.944C285.831 228.471 284.736 228.354 284.383 227.681C284.03 227.009 284.553 226.036 285.551 225.509C286.549 224.981 287.644 225.099 287.997 225.772Z" fill="#FFB2A0"/>
<path fill-rule="evenodd" clip-rule="evenodd" d="M298.473 220.382C298.762 221.085 298.151 222.003 297.11 222.435C296.066 222.869 294.987 222.649 294.698 221.946C294.408 221.243 295.019 220.324 296.062 219.893C297.104 219.461 298.184 219.679 298.473 220.382Z" fill="#FFB2A0"/>
<path fill-rule="evenodd" clip-rule="evenodd" d="M289.14 238.321C289.14 238.321 292.097 238.925 295.865 237.981C295.865 237.981 294.008 239.792 290.972 240.213C290.972 240.213 290.292 238.951 289.14 238.321Z" fill="#FFA192"/>
<path fill-rule="evenodd" clip-rule="evenodd" d="M292.161 218.391C292.492 218.673 292.533 219.172 292.252 219.504C291.971 219.837 291.475 219.878 291.142 219.596C290.811 219.315 290.77 218.816 291.051 218.482C291.332 218.15 291.829 218.109 292.161 218.391Z" fill="#22343D"/>
<path fill-rule="evenodd" clip-rule="evenodd" d="M286.222 221.819C286.554 222.101 286.594 222.6 286.313 222.932C286.034 223.265 285.536 223.306 285.204 223.024C284.872 222.741 284.832 222.244 285.113 221.91C285.394 221.578 285.891 221.537 286.222 221.819Z" fill="#22343D"/>
<path fill-rule="evenodd" clip-rule="evenodd" d="M292.196 215.093C292.117 215.346 291.38 215.337 290.569 215.583C289.751 215.804 289.131 216.205 288.93 216.032C288.722 215.887 289.203 214.999 290.312 214.683C291.419 214.362 292.295 214.858 292.196 215.093Z" fill="#22343D"/>
<path fill-rule="evenodd" clip-rule="evenodd" d="M281.937 221.309C281.739 221.162 282.05 220.315 282.805 219.467C283.568 218.6 284.546 218.312 284.648 218.553C284.758 218.788 284.162 219.338 283.492 220.099C282.813 220.858 282.152 221.471 281.937 221.309Z" fill="#22343D"/>
<path fill-rule="evenodd" clip-rule="evenodd" d="M278.604 227.893C278.604 227.893 275.77 225.504 274.409 227.665C273.049 229.826 280.531 230.964 280.531 230.964L278.604 227.893Z" fill="#FFC6B2"/>
<path fill-rule="evenodd" clip-rule="evenodd" d="M210.452 445.702C210.452 445.702 206.388 447.475 205.329 448.539C204.268 449.602 194.551 466.441 195.788 468.568C197.026 470.696 206.77 463.475 206.77 463.475C206.77 463.475 198.616 465.024 210.452 445.702Z" fill="#775298"/>
<path fill-rule="evenodd" clip-rule="evenodd" d="M289.745 467.97C289.745 467.97 286.859 471.1 286.413 472.537C285.968 473.972 285.171 493.414 287.253 494.72C289.333 496.027 295.021 485.299 295.021 485.299C295.021 485.299 288.221 490.643 289.745 468.015" fill="#775298"/>
</svg>
